<?xml version="1.0" encoding="utf-8"?>
<!-- Generator: Adobe Illustrator 28.1.0, SVG Export Plug-In . SVG Version: 6.00 Build 0)  -->
<svg version="1.1" id="Layer_1" xmlns="http://www.w3.org/2000/svg" xmlns:xlink="http://www.w3.org/1999/xlink" x="0px" y="0px"
	 viewBox="0 0 800 800" style="enable-background:new 0 0 800 800;" xml:space="preserve">
<style type="text/css">
	.st0{fill:none;stroke:#3C5BCE;stroke-width:66.6667;stroke-linecap:round;stroke-linejoin:round;stroke-miterlimit:133.3333;}
	.st1{display:none;}
</style>
<g id="film-movie">
	<path id="primary" class="st0" d="M400,566.7V700h200V566.7H400z M200,566.7V700h200V566.7H200z M100,700h600 M600,233.3V100H400
		v133.3H600z M400,233.3V100H200v133.3H400z M100,100h600 M433.3,400l-66.7-50v100L433.3,400z M100,533.3V266.7
		c0-18.4,14.9-33.3,33.3-33.3h533.3c18.4,0,33.3,14.9,33.3,33.3v266.7c0,18.4-14.9,33.3-33.3,33.3H133.3
		C114.9,566.7,100,551.7,100,533.3z"/>
</g>
<g id="Layer_2_00000078730952855562926550000015987428632485049005_" class="st1">
	
		<image style="display:inline;overflow:visible;enable-background:new    ;" width="1940" height="550" xlink:href="../../../../../../Desktop/Screenshot 2025-10-16 at 7.31.03 PM.png"  transform="matrix(0.5 0 0 0.5 -108 384.5)">
	</image>
</g>
</svg>
