<?xml version="1.0" encoding="utf-8"?>
<!-- Generator: Adobe Illustrator 28.1.0, SVG Export Plug-In . SVG Version: 6.00 Build 0)  -->
<svg version="1.1" id="Layer_1" xmlns="http://www.w3.org/2000/svg" xmlns:xlink="http://www.w3.org/1999/xlink" x="0px" y="0px"
	 viewBox="0 0 800 800" style="enable-background:new 0 0 800 800;" xml:space="preserve">
<style type="text/css">
	.st0{fill:#3C5BCE;}
</style>
<path class="st0" d="M683.8,162.8H344.4V160c0.3-1.6,0.3-3.4,0.3-5v-35.6c0-24.4-20-44.4-44.4-44.4h-31.9h-164H72.8
	c-24.4,0-44.4,20-44.4,44.4V151v3.8v79.7v408.4c0,48.4,39.4,87.5,87.8,87.8h567.5c48.4,0,87.8-39.4,87.8-87.8V250.6
	C771.6,202.2,732.2,162.8,683.8,162.8z M683.8,672.2H116.2c-16.2-0.3-29.1-13.1-29.4-29.4V250.9c0.3-16.2,13.1-29.1,29.4-29.4h567.5
	c16.2,0.3,29.1,13.1,29.4,29.4v391.9l0,0C712.8,659.1,700,671.9,683.8,672.2z M531.9,338.4c0-35,28.4-63.8,63.8-63.8
	c35.3,0,63.7,28.4,63.7,63.8c0,35-28.4,63.8-63.7,63.8h-0.3l0,0C560,402.2,531.9,373.4,531.9,338.4z M496.2,468.4l170.9,164.1H126.6
	L286,308.4l105.6,235.3L496.2,468.4z"/>
</svg>
