<?xml version="1.0" encoding="utf-8"?>
<!-- Generator: Adobe Illustrator 28.1.0, SVG Export Plug-In . SVG Version: 6.00 Build 0)  -->
<svg version="1.1" xmlns="http://www.w3.org/2000/svg" xmlns:xlink="http://www.w3.org/1999/xlink" x="0px" y="0px"
	 viewBox="0 0 800 800" style="enable-background:new 0 0 800 800;" xml:space="preserve">
<style type="text/css">
	.st0{fill:#3C5BCE;}
	.st1{display:none;}
	.st2{display:inline;}
</style>
<g id="Layer_1">
	<g>
		<g>
			<g>
				<path class="st0" d="M233.3,333.4h-100c-18.4,0-33.3,14.9-33.3,33.3s14.9,33.3,33.3,33.3h100c18.4,0,33.3-14.9,33.3-33.3
					C266.7,348.3,251.8,333.4,233.3,333.4z"/>
				<path class="st0" d="M233.3,466.7h-100c-18.4,0-33.3,14.9-33.3,33.3c0,18.4,14.9,33.3,33.3,33.3h100c18.4,0,33.3-14.9,33.3-33.3
					C266.7,481.6,251.8,466.7,233.3,466.7z"/>
				<path class="st0" d="M233.3,600h-100c-18.4,0-33.3,14.9-33.3,33.3s14.9,33.3,33.3,33.3h100c18.4,0,33.3-14.9,33.3-33.3
					C266.7,615,251.8,600,233.3,600z"/>
				<path class="st0" d="M770.7,229.3c-39-39-102.4-39-141.4,0L566.7,292v-90.1c0.4-6.8-1.3-13.9-5.6-20.3c0,0,0-0.1-0.1-0.1
					c-0.4-0.7-0.9-1.3-1.4-1.9c-0.1-0.1-0.2-0.2-0.2-0.3L426,12.6c-0.5-0.6-1-1.2-1.6-1.8c-0.2-0.3-0.5-0.5-0.7-0.8
					c-0.2-0.2-0.4-0.3-0.5-0.5c-7.1-7-16-9.9-24.7-9.4H33.4C14.9,0.1,0,15,0,33.4v733.3C0,785.1,14.9,800,33.4,800h500
					c18.4,0,33.3-14.9,33.3-33.3V574.8l204-204.1C809.7,331.7,809.7,268.4,770.7,229.3z M464,166.7h-30.6v-38.3L464,166.7z
					 M500,733.3H66.7V66.7h300V200c0,18.4,14.9,33.3,33.3,33.3h100v125.2l-14.6,14.6L322.9,535.7c-5.3,5.3-8.6,12.1-9.5,19.5
					l-8.1,66.6l-5,40.8c-1.8,14.8,6.3,28,18.5,34c5.5,2.7,12,3.9,18.7,3.1l107.4-13.1c7.4-0.9,14.3-4.3,19.5-9.5l35.7-35.7v91.9H500
					z M723.6,323.6L509.9,537.3l-0.1,0.1l-84.5,84.5l-53.7,6.5l6.6-53.7l154.5-154.6l143.7-143.7c13-13,34.1-13,47.1,0
					C736.6,289.5,736.6,310.6,723.6,323.6z"/>
				<path class="st0" d="M343.1,423.6c14.9,14.9,39.6,12.4,51.3-5.1l66.7-100c10.2-15.3,6.1-36-9.2-46.2c-15.3-10.2-36-6.1-46.2,9.2
					l-44.1,66.2l-4.6-4.6c-13-13-34.1-13-47.1,0s-13,34.1,0,47.1L343.1,423.6z"/>
			</g>
		</g>
	</g>
</g>
<g id="Layer_2" class="st1">
	<g id="kD0rPq.tif" class="st2">
		
			<image style="overflow:visible;" width="1578" height="764" id="Layer_0" xlink:href="1F9FD09D1C607026.png"  transform="matrix(0.5 0 0 0.5 5.5 209)">
		</image>
	</g>
</g>
</svg>
